<?xml version="1.0" standalone="no"?>
<!DOCTYPE svg PUBLIC "-//W3C//DTD SVG 20010904//EN"
 "http://www.w3.org/TR/2001/REC-SVG-20010904/DTD/svg10.dtd">
<svg version="1.0" xmlns="http://www.w3.org/2000/svg"
 width="200.000000pt" height="200.000000pt" viewBox="0 0 200.000000 200.000000"
 preserveAspectRatio="xMidYMid meet">
<metadata>
Created by potrace 1.15, written by Peter Selinger 2001-2017
</metadata>
<g transform="translate(0.000000,200.000000) scale(0.100000,-0.100000)"
fill="#000000" stroke="none">
<path d="M1006 1973 c-4 -9 -6 -140 -6 -291 2 -274 2 -274 -22 -300 l-23 -27
23 19 23 20 89 -89 c97 -97 92 -96 149 -36 71 75 77 88 13 26 l-72 -70 -85 85
c-47 47 -85 89 -85 95 0 5 38 -28 85 -75 l85 -85 20 21 21 20 -31 58 c-45 87
-39 161 21 238 46 59 48 53 -93 251 -54 77 -97 141 -95 143 2 2 28 -30 57 -71
51 -72 81 -104 45 -47 -83 129 -106 150 -119 115z"/>
<path d="M1570 1317 c0 -2 25 -21 55 -41 60 -40 66 -48 33 -42 -13 2 -41 -10
-68 -30 -89 -64 -164 -65 -272 -5 l-47 26 37 39 37 40 -45 -39 c-25 -22 -54
-50 -64 -63 l-18 -24 91 -92 c50 -52 91 -90 91 -87 0 4 -38 44 -85 91 -47 47
-85 89 -85 95 0 5 44 -34 98 -88 l98 -97 279 2 280 3 -102 73 c-56 41 -101 78
-100 84 1 6 -38 40 -88 75 -91 65 -125 87 -125 80z"/>
<path d="M920 1225 c-53 -53 -77 -71 -83 -62 -6 9 -7 8 -4 -3 3 -9 -24 -44
-67 -88 l-71 -72 153 -153 152 -152 153 153 152 152 -150 150 c-82 82 -152
150 -155 150 -3 0 -39 -34 -80 -75z"/>
<path d="M615 1020 c-19 -20 -18 -22 65 -105 46 -46 82 -87 79 -89 -3 -3 -45
35 -94 84 l-90 90 -273 0 c-211 0 -276 -3 -286 -13 -11 -11 28 -42 217 -175
126 -90 231 -161 233 -159 2 2 -31 27 -74 57 -194 134 -372 263 -368 267 2 3
77 -46 166 -109 89 -63 168 -112 178 -110 9 2 28 14 42 27 31 30 100 55 150
55 21 0 62 -13 96 -30 49 -24 61 -27 74 -16 50 43 35 18 -30 -48 -87 -89 -86
-102 1 -18 94 89 95 81 -7 183 -87 87 -88 88 -69 109 10 11 16 20 13 20 -3 0
-13 -9 -23 -20z"/>
<path d="M1087 662 l-87 -88 2 -284 c3 -242 5 -284 18 -287 12 -4 12 -3 2 5
-11 7 12 46 102 172 64 90 116 170 116 179 0 8 -9 24 -19 35 -37 41 -61 100
-61 151 0 49 27 126 49 139 12 8 -12 66 -27 66 -4 0 -47 -40 -95 -88z"/>
</g>
</svg>
