<?xml version="1.0" standalone="no"?>
<!DOCTYPE svg PUBLIC "-//W3C//DTD SVG 20010904//EN"
 "http://www.w3.org/TR/2001/REC-SVG-20010904/DTD/svg10.dtd">
<svg version="1.0" xmlns="http://www.w3.org/2000/svg"
 width="225.000000pt" height="225.000000pt" viewBox="0 0 225.000000 225.000000"
 preserveAspectRatio="xMidYMid meet">
<metadata>
Created by potrace 1.15, written by Peter Selinger 2001-2017
</metadata>
<g transform="translate(0.000000,225.000000) scale(0.100000,-0.100000)"
fill="#000000" stroke="none">
<path d="M1120 1704 l0 -229 153 -82 c83 -44 196 -105 251 -133 l98 -53 -42
59 c-23 32 -134 194 -246 358 -112 165 -206 302 -209 304 -3 3 -5 -98 -5 -224z"/>
<path d="M1120 1235 l0 -145 -27 1 c-16 0 -120 8 -233 18 -113 10 -206 17
-207 16 -2 -1 73 -41 165 -90 92 -48 199 -105 237 -126 l70 -38 238 128 238
129 -118 62 c-65 35 -131 71 -148 80 -113 62 -203 110 -209 110 -3 0 -6 -65
-6 -145z"/>
<path d="M1565 1016 c-22 -12 -131 -71 -242 -131 l-203 -108 0 -235 0 -235 23
34 c107 159 455 677 461 687 10 16 7 16 -39 -12z"/>
</g>
</svg>
