<?xml version="1.0" standalone="no"?>
<!DOCTYPE svg PUBLIC "-//W3C//DTD SVG 20010904//EN"
 "http://www.w3.org/TR/2001/REC-SVG-20010904/DTD/svg10.dtd">
<svg version="1.0" xmlns="http://www.w3.org/2000/svg"
 width="275.000000pt" height="183.000000pt" viewBox="0 0 275.000000 183.000000"
 preserveAspectRatio="xMidYMid meet">
<metadata>
Created by potrace 1.15, written by Peter Selinger 2001-2017
</metadata>
<g transform="translate(0.000000,183.000000) scale(0.100000,-0.100000)"
fill="#000000" stroke="none">
<path d="M1380 1525 c0 -5 -2 -109 -3 -230 l-2 -220 -173 -87 c-95 -48 -173
-90 -173 -95 -1 -4 78 -56 175 -115 l176 -108 168 102 c92 55 173 106 180 113
10 9 -6 45 -82 181 -157 282 -266 470 -266 459z"/>
<path d="M1022 822 c10 -27 352 -490 358 -487 10 6 350 482 350 489 0 3 -57
-29 -127 -71 -71 -41 -151 -88 -179 -104 l-51 -29 -177 105 c-98 58 -176 101
-174 97z"/>
</g>
</svg>
