<?xml version="1.0" standalone="no"?>
<!DOCTYPE svg PUBLIC "-//W3C//DTD SVG 20010904//EN"
 "http://www.w3.org/TR/2001/REC-SVG-20010904/DTD/svg10.dtd">
<svg version="1.0" xmlns="http://www.w3.org/2000/svg"
 width="204.000000pt" height="204.000000pt" viewBox="0 0 204.000000 204.000000"
 preserveAspectRatio="xMidYMid meet">
<metadata>
Created by potrace 1.15, written by Peter Selinger 2001-2017
</metadata>
<g transform="translate(0.000000,204.000000) scale(0.100000,-0.100000)"
fill="#000000" stroke="none">
<path d="M156 761 c-5 -8 -29 -203 -27 -216 0 -5 11 -9 23 -9 20 0 23 7 34 84
13 91 28 113 74 108 23 -3 25 -7 25 -58 0 -30 -3 -72 -7 -92 -6 -35 -5 -38 17
-38 28 0 33 13 41 100 6 57 10 70 29 80 43 23 60 10 60 -45 0 -28 -3 -69 -7
-92 -6 -40 -5 -43 17 -43 29 0 34 15 42 112 5 67 3 81 -12 98 -22 24 -81 27
-112 5 -18 -13 -22 -13 -33 0 -9 10 -32 14 -87 13 -41 -1 -76 -4 -77 -7z"/>
<path d="M537 763 c-3 -5 -10 -42 -16 -84 -9 -59 -9 -82 0 -103 15 -32 35 -38
119 -34 l64 3 12 70 c27 167 27 155 0 155 -27 0 -31 -8 -41 -85 -13 -105 -13
-105 -55 -105 -50 0 -61 18 -49 85 13 84 12 105 -10 105 -11 0 -22 -3 -24 -7z"/>
<path d="M801 757 c-32 -16 -49 -74 -28 -95 9 -8 39 -20 69 -26 41 -10 53 -17
53 -32 0 -17 -9 -19 -72 -22 -65 -3 -73 -5 -73 -22 0 -18 7 -20 80 -20 91 0
120 17 120 69 0 36 -18 51 -77 62 -57 11 -71 22 -53 44 9 11 31 15 76 15 57 0
64 2 64 20 0 18 -7 20 -67 20 -38 0 -79 -6 -92 -13z"/>
<path d="M1149 755 c-35 -19 -59 -72 -59 -132 0 -51 13 -72 55 -87 31 -11 125
4 125 20 0 10 -15 14 -54 14 -67 0 -80 14 -73 75 7 65 27 83 96 87 42 2 56 7
56 18 0 21 -110 25 -146 5z"/>
<path d="M1355 756 c-36 -16 -55 -53 -62 -122 -8 -72 15 -94 96 -94 73 0 104
21 120 84 17 67 14 94 -14 121 -28 29 -89 33 -140 11z m105 -46 c14 -26 1 -99
-22 -122 -21 -21 -57 -23 -83 -4 -15 11 -17 21 -12 61 4 27 15 57 24 67 22 25
79 24 93 -2z"/>
<path d="M1680 761 c0 -3 -7 -49 -15 -101 -19 -123 -19 -120 9 -120 26 0 28 7
42 118 7 58 22 72 73 72 38 0 44 -18 31 -95 -14 -88 -13 -95 13 -95 22 0 25 6
36 85 12 86 7 118 -23 137 -13 9 -166 8 -166 -1z"/>
</g>
</svg>
